# xmcd
#
# Track frame offsets: 
#        150
#        14580
#        26142
#        37362
#        49787
#        59255
#        70422
#        82517
#        92955
#        106212
#        118810
#        127862
#        139050
#        149015
#
# Disc length: 2138 seconds
#
# Revision: 1
# Processed by: cddbd v1.4PL0 Copyright (c) Steve Scherf et al.
# Submitted via: ExactAudioCopy v0.90b3
#
DISCID=cc08580e
DTITLE=George Jones - White Lightning
DYEAR=1900
DGENRE=Country
TTITLE0=A Good Year For The Roses
TTITLE1=Window Up Above
TTITLE2=Four-O-Thirty-Three
TTITLE3=If My Heart Had Windows
TTITLE4=The Race Is On
TTITLE5=Tender Years
TTITLE6=White Lightning
TTITLE7=Walk Through This World With Me
TTITLE8=Things Have Gone To Pieces
TTITLE9=Take Me
TTITLE10=Love Bug
TTITLE11=Say It's Not You
TTITLE12=I'm A People
TTITLE13=Heartaches By The Number
EXTD=
EXTT0=
EXTT1=
EXTT2=
EXTT3=
EXTT4=
EXTT5=
EXTT6=
EXTT7=
EXTT8=
EXTT9=
EXTT10=
EXTT11=
EXTT12=
EXTT13=
PLAYORDER=
